<?xml version="1.0" encoding="UTF-8"?>
<svg xmlns="http://www.w3.org/2000/svg" id="Layer_1" data-name="Layer 1" viewBox="0 0 303.06 67.07">
  <defs>
    <style>
      .cls-1 {
        fill: #0b194a;
      }

      .cls-2 {
        fill: #6d6e70;
      }

      .cls-3 {
        fill: none;
        stroke: #6d6e70;
        stroke-width: .75px;
      }
    </style>
  </defs>
  <line class="cls-3" x1="233.28" y1="6.42" x2="233.28" y2="60.64"></line>
  <g>
    <g>
      <rect class="cls-1" x="275.82" y="17.29" width="4.08" height="15.79"></rect>
      <rect class="cls-1" x="283.5" y="17.29" width="4.08" height="15.79"></rect>
      <polygon class="cls-1" points="295.04 33.08 299.13 33.08 299.13 20.54 302.99 20.54 302.99 17.29 291.19 17.29 291.19 20.54 295.04 20.54 295.04 33.08"></polygon>
      <polygon class="cls-1" points="262.83 25.18 267.08 33.6 272.95 17.29 268.87 17.29 266.12 25.44 262.83 18.38 259.53 25.44 256.78 17.29 252.71 17.29 258.57 33.6 262.83 25.18"></polygon>
    </g>
    <path class="cls-2" d="m250.52,29.19v3.89h-1.1v-.85c-.39.58-1.11.92-2.11.92-1.46,0-2.38-.78-2.38-1.89,0-1.03.67-1.88,2.59-1.88h1.85v-.23c0-.98-.57-1.55-1.72-1.55-.77,0-1.54.27-2.04.69l-.49-.87c.67-.53,1.63-.83,2.66-.83,1.76,0,2.76.85,2.76,2.61Zm-1.17,1.92v-.9h-1.8c-1.15,0-1.48.45-1.48,1,0,.64.53,1.04,1.42,1.04s1.57-.4,1.86-1.14Z"></path>
    <g>
      <path class="cls-2" d="m252.12,45.06c0,1.44-1.09,2.27-3.21,2.27h-4.01v-8.4h3.77c1.93,0,3.01.82,3.01,2.17,0,.91-.47,1.55-1.13,1.87.95.26,1.57.97,1.57,2.09Zm-6.02-5.16v2.69h2.46c1.22,0,1.92-.46,1.92-1.34s-.7-1.34-1.92-1.34h-2.46Zm4.81,5.06c0-.97-.72-1.4-2.05-1.4h-2.76v2.79h2.76c1.33,0,2.05-.42,2.05-1.39Z"></path>
      <path class="cls-2" d="m263,40.91v1.12c-.1-.01-.18-.01-.26-.01-1.24,0-2,.76-2,2.15v3.17h-1.15v-6.36h1.1v1.07c.41-.74,1.2-1.13,2.31-1.13Z"></path>
      <path class="cls-2" d="m275.2,43.49v3.84h-1.09v-.84c-.38.58-1.09.91-2.09.91-1.44,0-2.35-.77-2.35-1.87,0-1.02.66-1.86,2.55-1.86h1.82v-.23c0-.97-.56-1.54-1.7-1.54-.76,0-1.52.26-2.02.68l-.48-.86c.66-.53,1.61-.82,2.63-.82,1.74,0,2.72.84,2.72,2.58Zm-1.15,1.89v-.89h-1.77c-1.14,0-1.46.44-1.46.98,0,.64.53,1.03,1.4,1.03s1.55-.4,1.83-1.13Z"></path>
      <path class="cls-2" d="m289.13,43.67v3.66h-1.15v-3.53c0-1.25-.62-1.86-1.71-1.86-1.22,0-2.01.73-2.01,2.11v3.27h-1.15v-6.36h1.1v.96c.47-.65,1.28-1.02,2.29-1.02,1.55,0,2.64.89,2.64,2.76Z"></path>
      <path class="cls-2" d="m303.06,38.43v8.9h-1.1v-1.01c-.52.72-1.33,1.08-2.27,1.08-1.86,0-3.21-1.31-3.21-3.25s1.36-3.24,3.21-3.24c.9,0,1.69.33,2.22,1.02v-3.5h1.15Zm-1.14,5.72c0-1.35-.92-2.23-2.13-2.23s-2.15.88-2.15,2.23.92,2.24,2.15,2.24,2.13-.89,2.13-2.24Z"></path>
    </g>
  </g>
  <g>
    <path class="cls-1" d="m0,66.17V8.09h10.7v50.87h16.11v7.21H0Z"></path>
    <path class="cls-1" d="m52.05,67.05c-11.98,0-18.56-4.8-18.56-14.08,0-11.15,11.05-15.1,25.39-16.54v-2.37c0-5.31-2.94-7.68-8.69-7.68-4.1.09-8.13,1.08-11.81,2.88l-2.28-6.1c4.83-2.19,10.05-3.37,15.35-3.46,10.47,0,17.06,4.73,17.06,15.7v28.36c-5.17,2.33-10.8,3.45-16.46,3.29Zm6.83-25.56c-10.12,1.09-15.68,4.14-15.68,11.13,0,5.58,3.31,8.6,9.53,8.6,2.12.05,4.22-.38,6.15-1.26v-18.48Z"></path>
    <path class="cls-1" d="m105.12,66.17v-31.18c0-5.91-2.37-8.77-8.69-8.77-2.26-.07-4.52.33-6.62,1.17v38.78h-10.34V23.16c5.38-2.22,11.14-3.34,16.96-3.31,13.23,0,18.98,5.56,18.98,15.27v31.05h-10.29Z"></path>
    <path class="cls-1" d="m137.01,67.05c-4.62.05-9.18-1.09-13.23-3.31l2.88-6.4c2.74,1.68,5.88,2.59,9.1,2.61,4.57,0,7.43-2.78,7.43-6.42,0-9.45-18.3-5.91-18.3-20.58,0-7.76,6.4-13.23,14.89-13.23,4.45-.14,8.85,1.01,12.66,3.31l-2.43,5.81c-2.42-1.56-5.23-2.43-8.11-2.53-4.47,0-6.73,2.61-6.73,5.99-.05,8.95,18.64,5.66,18.64,20.65,0,7.79-6.58,14.11-16.79,14.11Z"></path>
    <path class="cls-1" d="m180.37,67.05c-12.9,0-19.24-9.93-19.24-23.71s6.34-23.62,19.24-23.62,19.26,9.96,19.26,23.62-6.35,23.71-19.26,23.71Zm0-40.91c-6.62,0-8.93,7.51-8.93,17.04s2.27,17.04,8.93,17.04,8.95-7.51,8.95-17.04-2.28-17.04-8.95-17.04Z"></path>
    <path class="cls-1" d="m209.31,66.17V0h10.31v66.17h-10.31Z"></path>
  </g>
</svg>
